<svg xmlns="http://www.w3.org/2000/svg" version="1.1" xmlns:xlink="http://www.w3.org/1999/xlink" xmlns:svgjs="http://svgjs.com/svgjs" width="1440" height="560" preserveAspectRatio="none" viewBox="0 0 1440 560"><g mask="url(&quot;#SvgjsMask1000&quot;)" fill="none"><rect width="1440" height="560" x="0" y="0" fill="#0e2a47"></rect><path d="M709.46 576.53C833.51 521.92 780.83 132.38 1018.46 131.07 1256.09 129.76 1471.19 362.34 1636.45 366.27" stroke="rgba(51,121,194,0.58)" stroke-width="2"></path><path d="M463.86 643.51C605.61 637.94 694.45 418.85 979.5 406.68 1264.56 394.51 1351.82 161.3 1495.15 154.68" stroke="rgba(51,121,194,0.58)" stroke-width="2"></path><path d="M598.23 587.31C731.29 533.54 676.1 125.77 937.42 124.17 1198.74 122.57 1437.23 345.3 1615.81 348.17" stroke="rgba(51,121,194,0.58)" stroke-width="2"></path><path d="M214.72 644.3C406.06 626.83 534.48 228.75 860.92 228.27 1187.36 227.79 1335.71 454.49 1507.12 457.87" stroke="rgba(51,121,194,0.58)" stroke-width="2"></path><path d="M176.4 635.13C303.14 622.8 382.38 355.72 601.24 354.15 820.1 352.58 813.66 424.15 1026.08 424.15 1238.5 424.15 1343.28 354.38 1450.92 354.15" stroke="rgba(51,121,194,0.58)" stroke-width="2"></path></g><defs><mask id="SvgjsMask1000"><rect width="1440" height="560" fill="#ffffff"></rect></mask></defs></svg>