<svg xmlns="http://www.w3.org/2000/svg" version="1.1" xmlns:xlink="http://www.w3.org/1999/xlink" xmlns:svgjs="http://svgjs.com/svgjs" width="1440" height="560" preserveAspectRatio="none" viewBox="0 0 1440 560"><g mask="url(&quot;#SvgjsMask1000&quot;)" fill="none"><rect width="1440" height="560" x="0" y="0" fill="#0e2a47"></rect><path d="M-55.81 339.84L-55.81 339.84" stroke="#132e65" stroke-width="1.5"></path><path d="M-55.81 339.84L54.25 346.99" stroke="#132e65" stroke-width="1.5"></path><path d="M-55.81 339.84L-49.43 527.17" stroke="#132e65" stroke-width="1.5"></path><path d="M-55.81 339.84L90.18 502.86" stroke="#132e65" stroke-width="1.5"></path><path d="M-55.81 339.84L251.38 382.69" stroke="#132e65" stroke-width="1.5"></path><path d="M-55.81 339.84L223.67 542.56" stroke="#132e65" stroke-width="1.5"></path><path d="M-49.43 527.17L-49.43 527.17" stroke="#132e65" stroke-width="1.5"></path><path d="M-49.43 527.17L90.18 502.86" stroke="#132e65" stroke-width="1.5"></path><path d="M-49.43 527.17L-49.28 711.63" stroke="#132e65" stroke-width="1.5"></path><path d="M-49.43 527.17L54.25 346.99" stroke="#132e65" stroke-width="1.5"></path><path d="M-49.28 711.63L-49.28 711.63" stroke="#132e65" stroke-width="1.5"></path><path d="M-49.28 711.63L90.18 502.86" stroke="#132e65" stroke-width="1.5"></path><path d="M-49.28 711.63L240.26 708.51" stroke="#132e65" stroke-width="1.5"></path><path d="M-49.28 711.63L223.67 542.56" stroke="#132e65" stroke-width="1.5"></path><path d="M54.25 346.99L54.25 346.99" stroke="#132e65" stroke-width="1.5"></path><path d="M54.25 346.99L90.18 502.86" stroke="#132e65" stroke-width="1.5"></path><path d="M54.25 346.99L251.38 382.69" stroke="#132e65" stroke-width="1.5"></path><path d="M90.18 502.86L90.18 502.86" stroke="#132e65" stroke-width="1.5"></path><path d="M90.18 502.86L223.67 542.56" stroke="#132e65" stroke-width="1.5"></path><path d="M251.38 382.69L251.38 382.69" stroke="#132e65" stroke-width="1.5"></path><path d="M251.38 382.69L356.55 343.35" stroke="#132e65" stroke-width="1.5"></path><path d="M251.38 382.69L223.67 542.56" stroke="#132e65" stroke-width="1.5"></path><path d="M251.38 382.69L388.55 523.94" stroke="#132e65" stroke-width="1.5"></path><path d="M223.67 542.56L223.67 542.56" stroke="#132e65" stroke-width="1.5"></path><path d="M240.26 708.51L240.26 708.51" stroke="#132e65" stroke-width="1.5"></path><path d="M240.26 708.51L223.67 542.56" stroke="#132e65" stroke-width="1.5"></path><path d="M240.26 708.51L405.96 640.52" stroke="#132e65" stroke-width="1.5"></path><path d="M240.26 708.51L388.55 523.94" stroke="#132e65" stroke-width="1.5"></path><path d="M240.26 708.51L90.18 502.86" stroke="#132e65" stroke-width="1.5"></path><path d="M240.26 708.51L510.58 701.51" stroke="#132e65" stroke-width="1.5"></path><path d="M356.55 343.35L356.55 343.35" stroke="#132e65" stroke-width="1.5"></path><path d="M356.55 343.35L388.55 523.94" stroke="#132e65" stroke-width="1.5"></path><path d="M356.55 343.35L543.58 398.16" stroke="#132e65" stroke-width="1.5"></path><path d="M388.55 523.94L388.55 523.94" stroke="#132e65" stroke-width="1.5"></path><path d="M388.55 523.94L405.96 640.52" stroke="#132e65" stroke-width="1.5"></path><path d="M388.55 523.94L544.16 556.79" stroke="#132e65" stroke-width="1.5"></path><path d="M405.96 640.52L405.96 640.52" stroke="#132e65" stroke-width="1.5"></path><path d="M405.96 640.52L510.58 701.51" stroke="#132e65" stroke-width="1.5"></path><path d="M405.96 640.52L544.16 556.79" stroke="#132e65" stroke-width="1.5"></path><path d="M543.58 398.16L543.58 398.16" stroke="#132e65" stroke-width="1.5"></path><path d="M543.58 398.16L679.94 341.15" stroke="#132e65" stroke-width="1.5"></path><path d="M543.58 398.16L544.16 556.79" stroke="#132e65" stroke-width="1.5"></path><path d="M544.16 556.79L544.16 556.79" stroke="#132e65" stroke-width="1.5"></path><path d="M544.16 556.79L510.58 701.51" stroke="#132e65" stroke-width="1.5"></path><path d="M544.16 556.79L696.16 523.18" stroke="#132e65" stroke-width="1.5"></path><path d="M510.58 701.51L510.58 701.51" stroke="#132e65" stroke-width="1.5"></path><path d="M679.94 341.15L679.94 341.15" stroke="#132e65" stroke-width="1.5"></path><path d="M679.94 341.15L825.43 394.73" stroke="#132e65" stroke-width="1.5"></path><path d="M679.94 341.15L829.77 259.13" stroke="#132e65" stroke-width="1.5"></path><path d="M679.94 341.15L696.16 523.18" stroke="#132e65" stroke-width="1.5"></path><path d="M679.94 341.15L794.21 522.97" stroke="#132e65" stroke-width="1.5"></path><path d="M696.16 523.18L696.16 523.18" stroke="#132e65" stroke-width="1.5"></path><path d="M696.16 523.18L794.21 522.97" stroke="#132e65" stroke-width="1.5"></path><path d="M696.16 523.18L680.24 662.95" stroke="#132e65" stroke-width="1.5"></path><path d="M696.16 523.18L825.43 394.73" stroke="#132e65" stroke-width="1.5"></path><path d="M696.16 523.18L807.24 675.99" stroke="#132e65" stroke-width="1.5"></path><path d="M680.24 662.95L680.24 662.95" stroke="#132e65" stroke-width="1.5"></path><path d="M680.24 662.95L807.24 675.99" stroke="#132e65" stroke-width="1.5"></path><path d="M680.24 662.95L544.16 556.79" stroke="#132e65" stroke-width="1.5"></path><path d="M680.24 662.95L510.58 701.51" stroke="#132e65" stroke-width="1.5"></path><path d="M829.77 259.13L829.77 259.13" stroke="#132e65" stroke-width="1.5"></path><path d="M829.77 259.13L825.43 394.73" stroke="#132e65" stroke-width="1.5"></path><path d="M829.77 259.13L974.81 190.72" stroke="#132e65" stroke-width="1.5"></path><path d="M829.77 259.13L1003.93 347.82" stroke="#132e65" stroke-width="1.5"></path><path d="M825.43 394.73L825.43 394.73" stroke="#132e65" stroke-width="1.5"></path><path d="M825.43 394.73L794.21 522.97" stroke="#132e65" stroke-width="1.5"></path><path d="M825.43 394.73L952.09 521.26" stroke="#132e65" stroke-width="1.5"></path><path d="M825.43 394.73L1003.93 347.82" stroke="#132e65" stroke-width="1.5"></path><path d="M794.21 522.97L794.21 522.97" stroke="#132e65" stroke-width="1.5"></path><path d="M794.21 522.97L807.24 675.99" stroke="#132e65" stroke-width="1.5"></path><path d="M807.24 675.99L807.24 675.99" stroke="#132e65" stroke-width="1.5"></path><path d="M807.24 675.99L946.37 656.7" stroke="#132e65" stroke-width="1.5"></path><path d="M961.2 -59.84L961.2 -59.84" stroke="#132e65" stroke-width="1.5"></path><path d="M961.2 -59.84L1005.56 101.64" stroke="#132e65" stroke-width="1.5"></path><path d="M961.2 -59.84L1144.11 -53.64" stroke="#132e65" stroke-width="1.5"></path><path d="M961.2 -59.84L1135.76 109.3" stroke="#132e65" stroke-width="1.5"></path><path d="M961.2 -59.84L974.81 190.72" stroke="#132e65" stroke-width="1.5"></path><path d="M961.2 -59.84L1245.05 -75.17" stroke="#132e65" stroke-width="1.5"></path><path d="M961.2 -59.84L1265.4 42.41" stroke="#132e65" stroke-width="1.5"></path><path d="M1005.56 101.64L1005.56 101.64" stroke="#132e65" stroke-width="1.5"></path><path d="M1005.56 101.64L974.81 190.72" stroke="#132e65" stroke-width="1.5"></path><path d="M1005.56 101.64L1135.76 109.3" stroke="#132e65" stroke-width="1.5"></path><path d="M1005.56 101.64L1144.11 -53.64" stroke="#132e65" stroke-width="1.5"></path><path d="M974.81 190.72L974.81 190.72" stroke="#132e65" stroke-width="1.5"></path><path d="M974.81 190.72L1003.93 347.82" stroke="#132e65" stroke-width="1.5"></path><path d="M1003.93 347.82L1003.93 347.82" stroke="#132e65" stroke-width="1.5"></path><path d="M1003.93 347.82L1121.35 351.89" stroke="#132e65" stroke-width="1.5"></path><path d="M1003.93 347.82L952.09 521.26" stroke="#132e65" stroke-width="1.5"></path><path d="M952.09 521.26L952.09 521.26" stroke="#132e65" stroke-width="1.5"></path><path d="M952.09 521.26L946.37 656.7" stroke="#132e65" stroke-width="1.5"></path><path d="M952.09 521.26L794.21 522.97" stroke="#132e65" stroke-width="1.5"></path><path d="M946.37 656.7L946.37 656.7" stroke="#132e65" stroke-width="1.5"></path><path d="M946.37 656.7L1127.21 700.32" stroke="#132e65" stroke-width="1.5"></path><path d="M946.37 656.7L794.21 522.97" stroke="#132e65" stroke-width="1.5"></path><path d="M1144.11 -53.64L1144.11 -53.64" stroke="#132e65" stroke-width="1.5"></path><path d="M1144.11 -53.64L1245.05 -75.17" stroke="#132e65" stroke-width="1.5"></path><path d="M1144.11 -53.64L1265.4 42.41" stroke="#132e65" stroke-width="1.5"></path><path d="M1144.11 -53.64L1135.76 109.3" stroke="#132e65" stroke-width="1.5"></path><path d="M1144.11 -53.64L1238.04 207.94" stroke="#132e65" stroke-width="1.5"></path><path d="M1135.76 109.3L1135.76 109.3" stroke="#132e65" stroke-width="1.5"></path><path d="M1135.76 109.3L1238.04 207.94" stroke="#132e65" stroke-width="1.5"></path><path d="M1121.35 351.89L1121.35 351.89" stroke="#132e65" stroke-width="1.5"></path><path d="M1121.35 351.89L1298.62 397.47" stroke="#132e65" stroke-width="1.5"></path><path d="M1155.41 542.77L1155.41 542.77" stroke="#132e65" stroke-width="1.5"></path><path d="M1155.41 542.77L1241.32 502.09" stroke="#132e65" stroke-width="1.5"></path><path d="M1155.41 542.77L1127.21 700.32" stroke="#132e65" stroke-width="1.5"></path><path d="M1155.41 542.77L1121.35 351.89" stroke="#132e65" stroke-width="1.5"></path><path d="M1127.21 700.32L1127.21 700.32" stroke="#132e65" stroke-width="1.5"></path><path d="M1127.21 700.32L1299.61 683.44" stroke="#132e65" stroke-width="1.5"></path><path d="M1245.05 -75.17L1245.05 -75.17" stroke="#132e65" stroke-width="1.5"></path><path d="M1245.05 -75.17L1265.4 42.41" stroke="#132e65" stroke-width="1.5"></path><path d="M1245.05 -75.17L1135.76 109.3" stroke="#132e65" stroke-width="1.5"></path><path d="M1245.05 -75.17L1453.63 79.84" stroke="#132e65" stroke-width="1.5"></path><path d="M1245.05 -75.17L1238.04 207.94" stroke="#132e65" stroke-width="1.5"></path><path d="M1265.4 42.41L1265.4 42.41" stroke="#132e65" stroke-width="1.5"></path><path d="M1265.4 42.41L1135.76 109.3" stroke="#132e65" stroke-width="1.5"></path><path d="M1265.4 42.41L1238.04 207.94" stroke="#132e65" stroke-width="1.5"></path><path d="M1265.4 42.41L1453.63 79.84" stroke="#132e65" stroke-width="1.5"></path><path d="M1238.04 207.94L1238.04 207.94" stroke="#132e65" stroke-width="1.5"></path><path d="M1238.04 207.94L1121.35 351.89" stroke="#132e65" stroke-width="1.5"></path><path d="M1298.62 397.47L1298.62 397.47" stroke="#132e65" stroke-width="1.5"></path><path d="M1298.62 397.47L1391.5 410.33" stroke="#132e65" stroke-width="1.5"></path><path d="M1298.62 397.47L1241.32 502.09" stroke="#132e65" stroke-width="1.5"></path><path d="M1298.62 397.47L1404.42 532.75" stroke="#132e65" stroke-width="1.5"></path><path d="M1241.32 502.09L1241.32 502.09" stroke="#132e65" stroke-width="1.5"></path><path d="M1241.32 502.09L1404.42 532.75" stroke="#132e65" stroke-width="1.5"></path><path d="M1241.32 502.09L1391.5 410.33" stroke="#132e65" stroke-width="1.5"></path><path d="M1241.32 502.09L1299.61 683.44" stroke="#132e65" stroke-width="1.5"></path><path d="M1241.32 502.09L1121.35 351.89" stroke="#132e65" stroke-width="1.5"></path><path d="M1299.61 683.44L1299.61 683.44" stroke="#132e65" stroke-width="1.5"></path><path d="M1299.61 683.44L1393.69 701.1" stroke="#132e65" stroke-width="1.5"></path><path d="M1299.61 683.44L1404.42 532.75" stroke="#132e65" stroke-width="1.5"></path><path d="M1453.63 79.84L1453.63 79.84" stroke="#132e65" stroke-width="1.5"></path><path d="M1453.63 79.84L1565.71 109.84" stroke="#132e65" stroke-width="1.5"></path><path d="M1453.63 79.84L1557.47 205.84" stroke="#132e65" stroke-width="1.5"></path><path d="M1453.63 79.84L1540.85 -82.77" stroke="#132e65" stroke-width="1.5"></path><path d="M1453.63 79.84L1238.04 207.94" stroke="#132e65" stroke-width="1.5"></path><path d="M1391.5 410.33L1391.5 410.33" stroke="#132e65" stroke-width="1.5"></path><path d="M1391.5 410.33L1404.42 532.75" stroke="#132e65" stroke-width="1.5"></path><path d="M1404.42 532.75L1404.42 532.75" stroke="#132e65" stroke-width="1.5"></path><path d="M1393.69 701.1L1393.69 701.1" stroke="#132e65" stroke-width="1.5"></path><path d="M1393.69 701.1L1404.42 532.75" stroke="#132e65" stroke-width="1.5"></path><path d="M1393.69 701.1L1584.34 638.53" stroke="#132e65" stroke-width="1.5"></path><path d="M1540.85 -82.77L1540.85 -82.77" stroke="#132e65" stroke-width="1.5"></path><path d="M1540.85 -82.77L1565.71 109.84" stroke="#132e65" stroke-width="1.5"></path><path d="M1540.85 -82.77L1557.47 205.84" stroke="#132e65" stroke-width="1.5"></path><path d="M1540.85 -82.77L1245.05 -75.17" stroke="#132e65" stroke-width="1.5"></path><path d="M1565.71 109.84L1565.71 109.84" stroke="#132e65" stroke-width="1.5"></path><path d="M1565.71 109.84L1557.47 205.84" stroke="#132e65" stroke-width="1.5"></path><path d="M1557.47 205.84L1557.47 205.84" stroke="#132e65" stroke-width="1.5"></path><path d="M1557.47 205.84L1548.69 396.36" stroke="#132e65" stroke-width="1.5"></path><path d="M1557.47 205.84L1391.5 410.33" stroke="#132e65" stroke-width="1.5"></path><path d="M1548.69 396.36L1548.69 396.36" stroke="#132e65" stroke-width="1.5"></path><path d="M1548.69 396.36L1581.84 530.52" stroke="#132e65" stroke-width="1.5"></path><path d="M1548.69 396.36L1391.5 410.33" stroke="#132e65" stroke-width="1.5"></path><path d="M1548.69 396.36L1404.42 532.75" stroke="#132e65" stroke-width="1.5"></path><path d="M1548.69 396.36L1584.34 638.53" stroke="#132e65" stroke-width="1.5"></path><path d="M1581.84 530.52L1581.84 530.52" stroke="#132e65" stroke-width="1.5"></path><path d="M1581.84 530.52L1584.34 638.53" stroke="#132e65" stroke-width="1.5"></path><path d="M1581.84 530.52L1404.42 532.75" stroke="#132e65" stroke-width="1.5"></path><path d="M1584.34 638.53L1584.34 638.53" stroke="#132e65" stroke-width="1.5"></path><path d="M1584.34 638.53L1404.42 532.75" stroke="#132e65" stroke-width="1.5"></path><path d="M1584.34 638.53L1299.61 683.44" stroke="#132e65" stroke-width="1.5"></path><path d="M1584.34 638.53L1391.5 410.33" stroke="#132e65" stroke-width="1.5"></path><circle r="5" cx="-55.81" cy="339.84" fill="#132e65"></circle><circle r="5" cx="-49.43" cy="527.17" fill="#132e65"></circle><circle r="5" cx="-49.28" cy="711.63" fill="#132e65"></circle><circle r="5" cx="54.25" cy="346.99" fill="#132e65"></circle><circle r="5" cx="90.18" cy="502.86" fill="#132e65"></circle><circle r="5" cx="251.38" cy="382.69" fill="#132e65"></circle><circle r="5" cx="223.67" cy="542.56" fill="#132e65"></circle><circle r="5" cx="240.26" cy="708.51" fill="#132e65"></circle><circle r="5" cx="356.55" cy="343.35" fill="#132e65"></circle><circle r="5" cx="388.55" cy="523.94" fill="#132e65"></circle><circle r="5" cx="405.96" cy="640.52" fill="#132e65"></circle><circle r="5" cx="543.58" cy="398.16" fill="#132e65"></circle><circle r="5" cx="544.16" cy="556.79" fill="#132e65"></circle><circle r="5" cx="510.58" cy="701.51" fill="#132e65"></circle><circle r="5" cx="679.94" cy="341.15" fill="#132e65"></circle><circle r="5" cx="696.16" cy="523.18" fill="#132e65"></circle><circle r="5" cx="680.24" cy="662.95" fill="#132e65"></circle><circle r="5" cx="829.77" cy="259.13" fill="#132e65"></circle><circle r="5" cx="825.43" cy="394.73" fill="#132e65"></circle><circle r="5" cx="794.21" cy="522.97" fill="#132e65"></circle><circle r="5" cx="807.24" cy="675.99" fill="#132e65"></circle><circle r="5" cx="961.2" cy="-59.84" fill="#132e65"></circle><circle r="5" cx="1005.56" cy="101.64" fill="#132e65"></circle><circle r="5" cx="974.81" cy="190.72" fill="#132e65"></circle><circle r="5" cx="1003.93" cy="347.82" fill="#132e65"></circle><circle r="5" cx="952.09" cy="521.26" fill="#132e65"></circle><circle r="5" cx="946.37" cy="656.7" fill="#132e65"></circle><circle r="5" cx="1144.11" cy="-53.64" fill="#132e65"></circle><circle r="5" cx="1135.76" cy="109.3" fill="#132e65"></circle><circle r="5" cx="1121.35" cy="351.89" fill="#132e65"></circle><circle r="5" cx="1155.41" cy="542.77" fill="#132e65"></circle><circle r="5" cx="1127.21" cy="700.32" fill="#132e65"></circle><circle r="5" cx="1245.05" cy="-75.17" fill="#132e65"></circle><circle r="5" cx="1265.4" cy="42.41" fill="#132e65"></circle><circle r="5" cx="1238.04" cy="207.94" fill="#132e65"></circle><circle r="5" cx="1298.62" cy="397.47" fill="#132e65"></circle><circle r="5" cx="1241.32" cy="502.09" fill="#132e65"></circle><circle r="5" cx="1299.61" cy="683.44" fill="#132e65"></circle><circle r="5" cx="1453.63" cy="79.84" fill="#132e65"></circle><circle r="5" cx="1391.5" cy="410.33" fill="#132e65"></circle><circle r="5" cx="1404.42" cy="532.75" fill="#132e65"></circle><circle r="5" cx="1393.69" cy="701.1" fill="#132e65"></circle><circle r="5" cx="1540.85" cy="-82.77" fill="#132e65"></circle><circle r="5" cx="1565.71" cy="109.84" fill="#132e65"></circle><circle r="5" cx="1557.47" cy="205.84" fill="#132e65"></circle><circle r="5" cx="1548.69" cy="396.36" fill="#132e65"></circle><circle r="5" cx="1581.84" cy="530.52" fill="#132e65"></circle><circle r="5" cx="1584.34" cy="638.53" fill="#132e65"></circle><path d="M506.15 490.09L506.15 490.09" stroke="hsl(228.5, 77.2%, 51.5%)" stroke-width="1.5"></path><path d="M506.15 490.09L659.46 523.48" stroke="hsl(228.5, 77.2%, 51.5%)" stroke-width="1.5"></path><path d="M506.15 490.09L341.47 489.84" stroke="hsl(228.5, 77.2%, 51.5%)" stroke-width="1.5"></path><path d="M506.15 490.09L392.43 638.46" stroke="hsl(228.5, 77.2%, 51.5%)" stroke-width="1.5"></path><path d="M860.98 405.98L860.98 405.98" stroke="hsl(228.5, 77.2%, 51.5%)" stroke-width="1.5"></path><path d="M860.98 405.98L803.03 513.36" stroke="hsl(228.5, 77.2%, 51.5%)" stroke-width="1.5"></path><path d="M860.98 405.98L995.08 408.87" stroke="hsl(228.5, 77.2%, 51.5%)" stroke-width="1.5"></path><path d="M860.98 405.98L963.18 544.8" stroke="hsl(228.5, 77.2%, 51.5%)" stroke-width="1.5"></path><path d="M800.43 668.07L800.43 668.07" stroke="hsl(228.5, 77.2%, 51.5%)" stroke-width="1.5"></path><path d="M800.43 668.07L685.5 656.92" stroke="hsl(228.5, 77.2%, 51.5%)" stroke-width="1.5"></path><path d="M800.43 668.07L942.5 653.83" stroke="hsl(228.5, 77.2%, 51.5%)" stroke-width="1.5"></path><path d="M800.43 668.07L803.03 513.36" stroke="hsl(228.5, 77.2%, 51.5%)" stroke-width="1.5"></path><path d="M800.43 668.07L659.46 523.48" stroke="hsl(228.5, 77.2%, 51.5%)" stroke-width="1.5"></path><path d="M800.43 668.07L963.18 544.8" stroke="hsl(228.5, 77.2%, 51.5%)" stroke-width="1.5"></path><path d="M800.43 668.07L536.41 686.08" stroke="hsl(228.5, 77.2%, 51.5%)" stroke-width="1.5"></path><path d="M942.5 653.83L942.5 653.83" stroke="hsl(228.5, 77.2%, 51.5%)" stroke-width="1.5"></path><path d="M942.5 653.83L963.18 544.8" stroke="hsl(228.5, 77.2%, 51.5%)" stroke-width="1.5"></path><path d="M1247.24 490.67L1247.24 490.67" stroke="hsl(228.5, 77.2%, 51.5%)" stroke-width="1.5"></path><path d="M1247.24 490.67L1259.78 385.78" stroke="hsl(228.5, 77.2%, 51.5%)" stroke-width="1.5"></path><path d="M1247.24 490.67L1137.21 404.66" stroke="hsl(228.5, 77.2%, 51.5%)" stroke-width="1.5"></path><path d="M1247.24 490.67L1148.95 653.98" stroke="hsl(228.5, 77.2%, 51.5%)" stroke-width="1.5"></path><path d="M1247.24 490.67L1281.57 697.05" stroke="hsl(228.5, 77.2%, 51.5%)" stroke-width="1.5"></path><path d="M1570.8 -97.2L1570.8 -97.2" stroke="hsl(228.5, 77.2%, 51.5%)" stroke-width="1.5"></path><path d="M1570.8 -97.2L1558.8 68.47" stroke="hsl(228.5, 77.2%, 51.5%)" stroke-width="1.5"></path><path d="M1570.8 -97.2L1395.93 -89.44" stroke="hsl(228.5, 77.2%, 51.5%)" stroke-width="1.5"></path><path d="M1558.8 68.47L1558.8 68.47" stroke="hsl(228.5, 77.2%, 51.5%)" stroke-width="1.5"></path><path d="M1558.8 68.47L1433.62 75.65" stroke="hsl(228.5, 77.2%, 51.5%)" stroke-width="1.5"></path><path d="M1558.8 68.47L1397.6 188.54" stroke="hsl(228.5, 77.2%, 51.5%)" stroke-width="1.5"></path><path d="M1558.8 68.47L1395.93 -89.44" stroke="hsl(228.5, 77.2%, 51.5%)" stroke-width="1.5"></path><path d="M1558.8 68.47L1309.35 56.16" stroke="hsl(228.5, 77.2%, 51.5%)" stroke-width="1.5"></path><path d="M89.45 554.57L89.45 554.57" stroke="hsl(228.5, 77.2%, 51.5%)" stroke-width="1.5"></path><path d="M89.45 554.57L94.01 687.77" stroke="hsl(228.5, 77.2%, 51.5%)" stroke-width="1.5"></path><path d="M89.45 554.57L236.06 507.31" stroke="hsl(228.5, 77.2%, 51.5%)" stroke-width="1.5"></path><path d="M89.45 554.57L225.23 637.55" stroke="hsl(228.5, 77.2%, 51.5%)" stroke-width="1.5"></path><path d="M89.45 554.57L341.47 489.84" stroke="hsl(228.5, 77.2%, 51.5%)" stroke-width="1.5"></path><path d="M94.01 687.77L94.01 687.77" stroke="hsl(228.5, 77.2%, 51.5%)" stroke-width="1.5"></path><path d="M94.01 687.77L225.23 637.55" stroke="hsl(228.5, 77.2%, 51.5%)" stroke-width="1.5"></path><path d="M94.01 687.77L236.06 507.31" stroke="hsl(228.5, 77.2%, 51.5%)" stroke-width="1.5"></path><path d="M94.01 687.77L392.43 638.46" stroke="hsl(228.5, 77.2%, 51.5%)" stroke-width="1.5"></path><path d="M94.01 687.77L341.47 489.84" stroke="hsl(228.5, 77.2%, 51.5%)" stroke-width="1.5"></path><path d="M236.06 507.31L236.06 507.31" stroke="hsl(228.5, 77.2%, 51.5%)" stroke-width="1.5"></path><path d="M236.06 507.31L341.47 489.84" stroke="hsl(228.5, 77.2%, 51.5%)" stroke-width="1.5"></path><path d="M236.06 507.31L225.23 637.55" stroke="hsl(228.5, 77.2%, 51.5%)" stroke-width="1.5"></path><path d="M236.06 507.31L392.43 638.46" stroke="hsl(228.5, 77.2%, 51.5%)" stroke-width="1.5"></path><path d="M236.06 507.31L506.15 490.09" stroke="hsl(228.5, 77.2%, 51.5%)" stroke-width="1.5"></path><path d="M225.23 637.55L225.23 637.55" stroke="hsl(228.5, 77.2%, 51.5%)" stroke-width="1.5"></path><path d="M341.47 489.84L341.47 489.84" stroke="hsl(228.5, 77.2%, 51.5%)" stroke-width="1.5"></path><path d="M341.47 489.84L392.43 638.46" stroke="hsl(228.5, 77.2%, 51.5%)" stroke-width="1.5"></path><path d="M392.43 638.46L392.43 638.46" stroke="hsl(228.5, 77.2%, 51.5%)" stroke-width="1.5"></path><path d="M392.43 638.46L536.41 686.08" stroke="hsl(228.5, 77.2%, 51.5%)" stroke-width="1.5"></path><path d="M536.41 686.08L536.41 686.08" stroke="hsl(228.5, 77.2%, 51.5%)" stroke-width="1.5"></path><path d="M536.41 686.08L685.5 656.92" stroke="hsl(228.5, 77.2%, 51.5%)" stroke-width="1.5"></path><path d="M536.41 686.08L506.15 490.09" stroke="hsl(228.5, 77.2%, 51.5%)" stroke-width="1.5"></path><path d="M536.41 686.08L659.46 523.48" stroke="hsl(228.5, 77.2%, 51.5%)" stroke-width="1.5"></path><path d="M682.34 405.56L682.34 405.56" stroke="hsl(228.5, 77.2%, 51.5%)" stroke-width="1.5"></path><path d="M682.34 405.56L659.46 523.48" stroke="hsl(228.5, 77.2%, 51.5%)" stroke-width="1.5"></path><path d="M682.34 405.56L803.03 513.36" stroke="hsl(228.5, 77.2%, 51.5%)" stroke-width="1.5"></path><path d="M659.46 523.48L659.46 523.48" stroke="hsl(228.5, 77.2%, 51.5%)" stroke-width="1.5"></path><path d="M659.46 523.48L685.5 656.92" stroke="hsl(228.5, 77.2%, 51.5%)" stroke-width="1.5"></path><path d="M659.46 523.48L803.03 513.36" stroke="hsl(228.5, 77.2%, 51.5%)" stroke-width="1.5"></path><path d="M685.5 656.92L685.5 656.92" stroke="hsl(228.5, 77.2%, 51.5%)" stroke-width="1.5"></path><path d="M685.5 656.92L803.03 513.36" stroke="hsl(228.5, 77.2%, 51.5%)" stroke-width="1.5"></path><path d="M685.5 656.92L506.15 490.09" stroke="hsl(228.5, 77.2%, 51.5%)" stroke-width="1.5"></path><path d="M685.5 656.92L682.34 405.56" stroke="hsl(228.5, 77.2%, 51.5%)" stroke-width="1.5"></path><path d="M803.03 513.36L803.03 513.36" stroke="hsl(228.5, 77.2%, 51.5%)" stroke-width="1.5"></path><path d="M803.03 513.36L963.18 544.8" stroke="hsl(228.5, 77.2%, 51.5%)" stroke-width="1.5"></path><path d="M995.08 408.87L995.08 408.87" stroke="hsl(228.5, 77.2%, 51.5%)" stroke-width="1.5"></path><path d="M995.08 408.87L963.18 544.8" stroke="hsl(228.5, 77.2%, 51.5%)" stroke-width="1.5"></path><path d="M995.08 408.87L1137.21 404.66" stroke="hsl(228.5, 77.2%, 51.5%)" stroke-width="1.5"></path><path d="M995.08 408.87L803.03 513.36" stroke="hsl(228.5, 77.2%, 51.5%)" stroke-width="1.5"></path><path d="M995.08 408.87L942.5 653.83" stroke="hsl(228.5, 77.2%, 51.5%)" stroke-width="1.5"></path><path d="M963.18 544.8L963.18 544.8" stroke="hsl(228.5, 77.2%, 51.5%)" stroke-width="1.5"></path><path d="M963.18 544.8L1148.95 653.98" stroke="hsl(228.5, 77.2%, 51.5%)" stroke-width="1.5"></path><path d="M1139.53 190.37L1139.53 190.37" stroke="hsl(228.5, 77.2%, 51.5%)" stroke-width="1.5"></path><path d="M1139.53 190.37L1243.12 211.66" stroke="hsl(228.5, 77.2%, 51.5%)" stroke-width="1.5"></path><path d="M1139.53 190.37L1137.21 404.66" stroke="hsl(228.5, 77.2%, 51.5%)" stroke-width="1.5"></path><path d="M1137.21 404.66L1137.21 404.66" stroke="hsl(228.5, 77.2%, 51.5%)" stroke-width="1.5"></path><path d="M1137.21 404.66L1259.78 385.78" stroke="hsl(228.5, 77.2%, 51.5%)" stroke-width="1.5"></path><path d="M1148.95 653.98L1148.95 653.98" stroke="hsl(228.5, 77.2%, 51.5%)" stroke-width="1.5"></path><path d="M1148.95 653.98L1281.57 697.05" stroke="hsl(228.5, 77.2%, 51.5%)" stroke-width="1.5"></path><path d="M1282.5 -94.56L1282.5 -94.56" stroke="hsl(228.5, 77.2%, 51.5%)" stroke-width="1.5"></path><path d="M1282.5 -94.56L1395.93 -89.44" stroke="hsl(228.5, 77.2%, 51.5%)" stroke-width="1.5"></path><path d="M1282.5 -94.56L1309.35 56.16" stroke="hsl(228.5, 77.2%, 51.5%)" stroke-width="1.5"></path><path d="M1309.35 56.16L1309.35 56.16" stroke="hsl(228.5, 77.2%, 51.5%)" stroke-width="1.5"></path><path d="M1309.35 56.16L1433.62 75.65" stroke="hsl(228.5, 77.2%, 51.5%)" stroke-width="1.5"></path><path d="M1309.35 56.16L1397.6 188.54" stroke="hsl(228.5, 77.2%, 51.5%)" stroke-width="1.5"></path><path d="M1243.12 211.66L1243.12 211.66" stroke="hsl(228.5, 77.2%, 51.5%)" stroke-width="1.5"></path><path d="M1243.12 211.66L1397.6 188.54" stroke="hsl(228.5, 77.2%, 51.5%)" stroke-width="1.5"></path><path d="M1243.12 211.66L1309.35 56.16" stroke="hsl(228.5, 77.2%, 51.5%)" stroke-width="1.5"></path><path d="M1243.12 211.66L1259.78 385.78" stroke="hsl(228.5, 77.2%, 51.5%)" stroke-width="1.5"></path><path d="M1259.78 385.78L1259.78 385.78" stroke="hsl(228.5, 77.2%, 51.5%)" stroke-width="1.5"></path><path d="M1259.78 385.78L1429.7 369.15" stroke="hsl(228.5, 77.2%, 51.5%)" stroke-width="1.5"></path><path d="M1259.78 385.78L1139.53 190.37" stroke="hsl(228.5, 77.2%, 51.5%)" stroke-width="1.5"></path><path d="M1259.78 385.78L1458.22 510.39" stroke="hsl(228.5, 77.2%, 51.5%)" stroke-width="1.5"></path><path d="M1281.57 697.05L1281.57 697.05" stroke="hsl(228.5, 77.2%, 51.5%)" stroke-width="1.5"></path><path d="M1281.57 697.05L1406.14 687.35" stroke="hsl(228.5, 77.2%, 51.5%)" stroke-width="1.5"></path><path d="M1281.57 697.05L1458.22 510.39" stroke="hsl(228.5, 77.2%, 51.5%)" stroke-width="1.5"></path><path d="M1281.57 697.05L1577.78 643.41" stroke="hsl(228.5, 77.2%, 51.5%)" stroke-width="1.5"></path><path d="M1281.57 697.05L1259.78 385.78" stroke="hsl(228.5, 77.2%, 51.5%)" stroke-width="1.5"></path><path d="M1395.93 -89.44L1395.93 -89.44" stroke="hsl(228.5, 77.2%, 51.5%)" stroke-width="1.5"></path><path d="M1395.93 -89.44L1433.62 75.65" stroke="hsl(228.5, 77.2%, 51.5%)" stroke-width="1.5"></path><path d="M1395.93 -89.44L1309.35 56.16" stroke="hsl(228.5, 77.2%, 51.5%)" stroke-width="1.5"></path><path d="M1395.93 -89.44L1397.6 188.54" stroke="hsl(228.5, 77.2%, 51.5%)" stroke-width="1.5"></path><path d="M1433.62 75.65L1433.62 75.65" stroke="hsl(228.5, 77.2%, 51.5%)" stroke-width="1.5"></path><path d="M1433.62 75.65L1397.6 188.54" stroke="hsl(228.5, 77.2%, 51.5%)" stroke-width="1.5"></path><path d="M1433.62 75.65L1570.8 -97.2" stroke="hsl(228.5, 77.2%, 51.5%)" stroke-width="1.5"></path><path d="M1433.62 75.65L1282.5 -94.56" stroke="hsl(228.5, 77.2%, 51.5%)" stroke-width="1.5"></path><path d="M1397.6 188.54L1397.6 188.54" stroke="hsl(228.5, 77.2%, 51.5%)" stroke-width="1.5"></path><path d="M1397.6 188.54L1429.7 369.15" stroke="hsl(228.5, 77.2%, 51.5%)" stroke-width="1.5"></path><path d="M1397.6 188.54L1259.78 385.78" stroke="hsl(228.5, 77.2%, 51.5%)" stroke-width="1.5"></path><path d="M1429.7 369.15L1429.7 369.15" stroke="hsl(228.5, 77.2%, 51.5%)" stroke-width="1.5"></path><path d="M1429.7 369.15L1559.16 394.72" stroke="hsl(228.5, 77.2%, 51.5%)" stroke-width="1.5"></path><path d="M1429.7 369.15L1458.22 510.39" stroke="hsl(228.5, 77.2%, 51.5%)" stroke-width="1.5"></path><path d="M1429.7 369.15L1568.09 514.07" stroke="hsl(228.5, 77.2%, 51.5%)" stroke-width="1.5"></path><path d="M1458.22 510.39L1458.22 510.39" stroke="hsl(228.5, 77.2%, 51.5%)" stroke-width="1.5"></path><path d="M1458.22 510.39L1568.09 514.07" stroke="hsl(228.5, 77.2%, 51.5%)" stroke-width="1.5"></path><path d="M1458.22 510.39L1559.16 394.72" stroke="hsl(228.5, 77.2%, 51.5%)" stroke-width="1.5"></path><path d="M1458.22 510.39L1577.78 643.41" stroke="hsl(228.5, 77.2%, 51.5%)" stroke-width="1.5"></path><path d="M1458.22 510.39L1406.14 687.35" stroke="hsl(228.5, 77.2%, 51.5%)" stroke-width="1.5"></path><path d="M1406.14 687.35L1406.14 687.35" stroke="hsl(228.5, 77.2%, 51.5%)" stroke-width="1.5"></path><path d="M1406.14 687.35L1577.78 643.41" stroke="hsl(228.5, 77.2%, 51.5%)" stroke-width="1.5"></path><path d="M1406.14 687.35L1568.09 514.07" stroke="hsl(228.5, 77.2%, 51.5%)" stroke-width="1.5"></path><path d="M1559.16 394.72L1559.16 394.72" stroke="hsl(228.5, 77.2%, 51.5%)" stroke-width="1.5"></path><path d="M1559.16 394.72L1568.09 514.07" stroke="hsl(228.5, 77.2%, 51.5%)" stroke-width="1.5"></path><path d="M1568.09 514.07L1568.09 514.07" stroke="hsl(228.5, 77.2%, 51.5%)" stroke-width="1.5"></path><path d="M1568.09 514.07L1577.78 643.41" stroke="hsl(228.5, 77.2%, 51.5%)" stroke-width="1.5"></path><path d="M1577.78 643.41L1577.78 643.41" stroke="hsl(228.5, 77.2%, 51.5%)" stroke-width="1.5"></path><circle r="25" cx="506.15" cy="490.09" fill="url(#SvgjsRadialGradient1001)"></circle><circle r="25" cx="860.98" cy="405.98" fill="url(#SvgjsRadialGradient1001)"></circle><circle r="25" cx="800.43" cy="668.07" fill="url(#SvgjsRadialGradient1001)"></circle><circle r="25" cx="942.5" cy="653.83" fill="url(#SvgjsRadialGradient1001)"></circle><circle r="25" cx="1247.24" cy="490.67" fill="url(#SvgjsRadialGradient1001)"></circle><circle r="25" cx="1570.8" cy="-97.2" fill="url(#SvgjsRadialGradient1001)"></circle><circle r="25" cx="1558.8" cy="68.47" fill="url(#SvgjsRadialGradient1001)"></circle><circle r="5" cx="89.45" cy="554.57" fill="#8b9ad9"></circle><circle r="5" cx="94.01" cy="687.77" fill="#8b9ad9"></circle><circle r="5" cx="236.06" cy="507.31" fill="#8b9ad9"></circle><circle r="5" cx="225.23" cy="637.55" fill="#8b9ad9"></circle><circle r="5" cx="341.47" cy="489.84" fill="#8b9ad9"></circle><circle r="5" cx="392.43" cy="638.46" fill="#8b9ad9"></circle><circle r="5" cx="536.41" cy="686.08" fill="#8b9ad9"></circle><circle r="5" cx="682.34" cy="405.56" fill="#8b9ad9"></circle><circle r="5" cx="659.46" cy="523.48" fill="#8b9ad9"></circle><circle r="5" cx="685.5" cy="656.92" fill="#8b9ad9"></circle><circle r="5" cx="803.03" cy="513.36" fill="#8b9ad9"></circle><circle r="5" cx="995.08" cy="408.87" fill="#8b9ad9"></circle><circle r="5" cx="963.18" cy="544.8" fill="#8b9ad9"></circle><circle r="5" cx="1139.53" cy="190.37" fill="#8b9ad9"></circle><circle r="5" cx="1137.21" cy="404.66" fill="#8b9ad9"></circle><circle r="5" cx="1148.95" cy="653.98" fill="#8b9ad9"></circle><circle r="5" cx="1282.5" cy="-94.56" fill="#8b9ad9"></circle><circle r="5" cx="1309.35" cy="56.16" fill="#8b9ad9"></circle><circle r="5" cx="1243.12" cy="211.66" fill="#8b9ad9"></circle><circle r="5" cx="1259.78" cy="385.78" fill="#8b9ad9"></circle><circle r="5" cx="1281.57" cy="697.05" fill="#8b9ad9"></circle><circle r="5" cx="1395.93" cy="-89.44" fill="#8b9ad9"></circle><circle r="5" cx="1433.62" cy="75.65" fill="#8b9ad9"></circle><circle r="5" cx="1397.6" cy="188.54" fill="#8b9ad9"></circle><circle r="5" cx="1429.7" cy="369.15" fill="#8b9ad9"></circle><circle r="5" cx="1458.22" cy="510.39" fill="#8b9ad9"></circle><circle r="5" cx="1406.14" cy="687.35" fill="#8b9ad9"></circle><circle r="5" cx="1559.16" cy="394.72" fill="#8b9ad9"></circle><circle r="5" cx="1568.09" cy="514.07" fill="#8b9ad9"></circle><circle r="5" cx="1577.78" cy="643.41" fill="#8b9ad9"></circle></g><defs><mask id="SvgjsMask1000"><rect width="1440" height="560" fill="#ffffff"></rect></mask><radialGradient id="SvgjsRadialGradient1001"><stop stop-color="#ffffff" offset="0.1"></stop><stop stop-color="#1735b3" offset="0.2"></stop><stop stop-color="rgba(23, 53, 179, 0)" offset="1"></stop></radialGradient></defs></svg>