<svg xmlns="http://www.w3.org/2000/svg" version="1.1" xmlns:xlink="http://www.w3.org/1999/xlink" xmlns:svgjs="http://svgjs.com/svgjs" width="1440" height="250" preserveAspectRatio="none" viewBox="0 0 1440 250"><g mask="url(&quot;#SvgjsMask1000&quot;)" fill="none"><rect width="1440" height="250" x="0" y="0" fill="#0e2a47"></rect><path d="M34 250L284 0L492.5 0L242.5 250z" fill="url(#SvgjsLinearGradient1001)"></path><path d="M260.6 250L510.6 0L621.6 0L371.6 250z" fill="url(#SvgjsLinearGradient1001)"></path><path d="M504.20000000000005 250L754.2 0L1076.7 0L826.7 250z" fill="url(#SvgjsLinearGradient1001)"></path><path d="M758.8000000000001 250L1008.8000000000001 0L1098.8000000000002 0L848.8000000000001 250z" fill="url(#SvgjsLinearGradient1001)"></path><path d="M1420 250L1170 0L966 0L1216 250z" fill="url(#SvgjsLinearGradient1002)"></path><path d="M1193.4 250L943.4000000000001 0L656.9000000000001 0L906.9000000000001 250z" fill="url(#SvgjsLinearGradient1002)"></path><path d="M952.8 250L702.8 0L563.3 0L813.3 250z" fill="url(#SvgjsLinearGradient1002)"></path><path d="M717.1999999999999 250L467.19999999999993 0L174.69999999999993 0L424.69999999999993 250z" fill="url(#SvgjsLinearGradient1002)"></path><path d="M1312.5779953032088 250L1440 122.57799530320871L1440 250z" fill="url(#SvgjsLinearGradient1001)"></path><path d="M0 250L127.42200469679129 250L 0 122.57799530320871z" fill="url(#SvgjsLinearGradient1002)"></path></g><defs><mask id="SvgjsMask1000"><rect width="1440" height="250" fill="#ffffff"></rect></mask><linearGradient x1="0%" y1="100%" x2="100%" y2="0%" id="SvgjsLinearGradient1001"><stop stop-color="rgba(15, 70, 185, 0.2)" offset="0"></stop><stop stop-opacity="0" stop-color="rgba(15, 70, 185, 0.2)" offset="0.66"></stop></linearGradient><linearGradient x1="100%" y1="100%" x2="0%" y2="0%" id="SvgjsLinearGradient1002"><stop stop-color="rgba(15, 70, 185, 0.2)" offset="0"></stop><stop stop-opacity="0" stop-color="rgba(15, 70, 185, 0.2)" offset="0.66"></stop></linearGradient></defs></svg>